<?xml version="1.0" encoding="UTF-8"?>
<svg xmlns="http://www.w3.org/2000/svg" xmlns:xlink="http://www.w3.org/1999/xlink" width="1792" height="1344" viewBox="0 0 1792 1344">
  <defs>
    <clipPath id="clippath">
      <rect width="1792" height="1344" fill="#182c42"></rect>
    </clipPath>
    <clipPath id="clippath-1">
      <polygon points="0 1344 1093 1344 767 448 0 448 0 1344" fill="none"></polygon>
    </clipPath>
    <linearGradient id="Unbenannter_Verlauf_10" data-name="Unbenannter Verlauf 10" x1="0" y1="672" x2="1792" y2="672" gradientUnits="userSpaceOnUse">
      <stop offset="0" stop-color="#557791" stop-opacity="0"></stop>
      <stop offset=".7" stop-color="#557791"></stop>
    </linearGradient>
  </defs>
  <g id="Hintergrund_gewandelt" data-name="Hintergrund // gewandelt">
    <g>
      <rect width="1792" height="1344" fill="#182c42"></rect>
      <g clip-path="url(#clippath)">
        <path d="M1089.00537109375,1344L1578.18115234375,0h5.321655273439319l-489.175659179689319,1344h-5.32177734375Zm-124.27777099609375,0L1453.903198242189319,0h-5.321655273439319l-489.17584228515625,1344h5.3218994140625Zm86.39935302734375,0L1540.302612304689319,0h-5.321655273439319l-489.17578125,1344h5.32177734375Zm28.799926757810681,0L1569.103393554689319,0h-5.321655273439319l-489.1767578125,1344h5.321899414060681Zm-43.199340820310681,0L1525.903198242189319,0h-5.321655273439319l-489.17578125,1344h5.32177734375Zm-14.400329589840112,0L1511.502807617189319,0h-5.321655273439319l-489.175842285159888,1344h5.321899414069776Zm-28.799804687503638,0L1482.703002929689319,0h-5.321655273439319l-489.17584228515625,1344h5.3218994140625Zm14.399475097654431,0L1497.103393554689319,0h-5.321655273439319l-489.176818847659888,1344h5.321960449220569Zm-28.799865722654431,0L1468.302612304689319,0h-5.321655273439319l-489.17584228515625,1344h5.3218994140625Zm230.40032958984375,0L1698.703002929689319,0h-5.321655273439319l-489.17578125,1344h5.32177734375Zm-14.400390625,0L1684.302612304689319,0h-5.321655273439319l-489.17578125,1344h5.32177734375Zm28.799926757810681,0L1713.103393554689319,0h-5.321655273439319l-489.1767578125,1344h5.321899414060681Zm-115.199340820310681,0L1597.903198242189319,0h-5.321655273439319l-489.17578125,1344h5.32177734375Zm72,0L1669.903198242189319,0h-5.321655273439319l-489.17578125,1344h5.32177734375Zm-43.2001953125,0L1626.703002929689319,0h-5.321655273439319l-489.17578125,1344h5.32177734375Zm-14.400390625,0L1612.302612304689319,0h-5.321655273439319l-489.17578125,1344h5.32177734375Zm28.799926757810681,0L1641.103393554689319,0h-5.321655273439319l-489.1767578125,1344h5.321899414060681Zm14.400268554689319,0L1655.502807617189319,0h-5.321655273439319l-489.17578125,1344h5.32177734375Zm-403.20062255859375,0L1252.302612304689319,0h-5.321655273439319l-489.1754150390625,1344h5.32098388671875Zm-14.39984130859375,0L1237.903198242189319,0h-5.321655273439319l-489.17584228515625,1344h5.32098388671875Zm201.60052490234375,0L1439.502807617189319,0h-5.321655273439319l-489.17584228515625,1344h5.3218994140625Zm-172.80029296875,0L1266.703002929689319,0h-5.321655273439319l-489.1754150390625,1344h5.32098388671875Zm14.39996337890625,0L1281.103393554689319,0h-5.321655273439319l-489.17584228515625,1344h5.32098388671875Zm-86.39996337890625,0L1194.703002929689319,0h-5.321655273439319l-489.1754150390625,1344h5.32098388671875Zm-14.400390625,0L1180.302612304689319,0h-5.321655273439319l-489.1754150390625,1344h5.32098388671875Zm43.2001953125,0L1223.502807617189319,0h-5.321655273439319l-489.1754150390625,1344h5.32098388671875Zm72,0L1295.502807617189319,0h-5.321655273439319l-489.1754150390625,1344h5.32098388671875Zm-86.39984130859375,0L1209.103393554689319,0h-5.321655273439319l-489.17584228515625,1344h5.32098388671875Zm518.4002685546875,0L1727.502807617189319,0h-5.321655273439319l-489.17578125,1344h5.32177734375Zm-331.20062255859375,0L1396.302612304689319,0h-5.321655273439319l-489.1754150390625,1344h5.32098388671875Zm14.400390625,0L1410.703002929689319,0h-5.321655273439319l-489.1754150390625,1344h5.32098388671875Zm-28.80023193359375,0L1381.903198242189319,0h-5.321655273439319l-489.17584228515625,1344h5.32098388671875Zm43.2001953125,0L1425.103393554689319,0h-5.321655273439319l-489.17681884765625,1344h5.32196044921875Zm-115.2001953125,0L1309.903198242189319,0h-5.321655273439319l-489.17584228515625,1344h5.32098388671875Zm14.39984130859375,0L1324.302612304689319,0h-5.321655273439319l-489.1754150390625,1344h5.32098388671875Zm14.400390625,0L1338.703002929689319,0h-5.321655273439319l-489.1754150390625,1344h5.32098388671875Zm28.7998046875,0L1367.502807617189319,0h-5.321655273439319l-489.1754150390625,1344h5.32098388671875Zm-14.39984130859375,0L1353.103393554689319,0h-5.321655273439319l-489.17584228515625,1344h5.32098388671875Zm532.8006591796875,0L1792,257.99713134765625v-14.62115478515625l-400.59423828125,1100.6240234375h5.32177734375Zm216,0l179.2724609375-492.5472412109375v-14.62158203125l-184.59423828125,507.1688232421875h5.32177734375Zm14.3994140625,0l164.873046875-452.98516845703125v-14.62158203125l-170.19482421875,467.60675048828125h5.32177734375Zm14.400390625,0l150.47265625-413.42041015625v-14.62158203125l-155.79443359375,428.0419921875h5.32177734375Zm-388.7998046875,0L1741.903198242189319,0h-5.321655273439319l-489.17578125,1344h5.32177734375Zm345.599609375,0l193.6728515625-532.112060546875v-14.62152099609375l-198.99462890625,546.73358154296875h5.32177734375Zm-43.2001953125,0l236.873046875-650.8037109375v-14.6214599609375l-242.19482421875,665.4251708984375h5.32177734375Zm14.400390625,0l222.47265625-611.2388916015625v-14.62152099609375l-227.79443359375,625.86041259765625h5.32177734375Zm100.7998046875,0l121.6728515625-334.293518066409888v-14.621643066402612l-126.99462890625,348.9151611328125h5.32177734375Zm-129.599609375,0l251.2724609375-690.36578369140625v-14.6214599609375l-256.59423828125,704.98724365234375h5.32177734375Zm43.199340820310681,0l208.073120117189319-571.67559814453125v-14.62152099609375l-213.39501953125,586.297119140625h5.321899414060681Zm187.200073242189319,0l20.873046875-57.34814453125v-14.621826171869543l-26.19482421875,71.969970703119543h5.32177734375Zm-14.3994140625,0l35.2724609375-96.91015625v-14.621826171869543l-40.59423828125,111.531982421869543h5.32177734375Zm28.7998046875,0l6.47265625-17.783325195310681v-14.621948242189319l-11.79443359375,32.4052734375h5.32177734375ZM13.9027099609375,0h-5.32061767578125L0,23.57904052734375v14.61834716796875L13.9027099609375,0ZM1684.7275390625,1344l107.2724609375-294.728759765619543v-14.62158203125l-112.59423828125,309.350341796869543h5.32177734375Zm14.3994140625,0l92.873046875-255.166625976560681v-14.621704101558862l-98.19482421875,269.788330078119543h5.32177734375Zm14.400390625,0l78.47265625-215.601806640619543v-14.621826171880457l-83.79443359375,230.2236328125h5.32177734375Zm28.7998046875,0l49.6728515625-136.474975585939319v-14.621704101560681l-54.99462890625,151.0966796875h5.32177734375Zm-14.400268554689319,0l64.073120117189319-176.039306640619543v-14.621704101569776l-69.39501953125,190.661010742189319h5.321899414060681Zm-72,0l136.073120117189319-373.85748291015625v-14.62158203125l-141.39501953125,388.47906494140625h5.321899414060681Zm-273.599731445310681,0L1792,218.432373046875v-14.62115478515625l-414.99462890625,1140.18878173828125h5.32177734375Zm-43.2001953125,0L1792,99.74072265625v-14.62109375l-458.19482421875,1258.88037109375h5.32177734375Zm-14.3994140625,0L1792,60.1785888671875v-14.62103271484375l-472.59423828125,1298.44244384765625h5.32177734375Zm43.199340820310681,0L1792,178.869873046875v-14.62109375l-429.39501953125,1179.751220703125h5.321899414060681Zm-14.399536132810681,0L1792,139.30548095703125v-14.62109375l-443.79443359375,1219.31561279296875h5.32177734375Zm-72,0L1770.703002929689319,0h-5.321655273439319l-489.17578125,1344h5.32177734375Zm-14.400390625,0L1756.302612304689319,0h-5.321655273439319l-489.17578125,1344h5.32177734375Zm28.799926757810681,0L1785.103393554689319,0h-5.321655273439319l-489.1767578125,1344h5.321899414060681Zm14.400268554689319,0L1792,20.61383056640625V5.99285888671875l-486.99462890625,1338.00714111328125h5.32177734375Zm201.599731445310681,0l280.073120117189319-769.4937744140625v-14.62139892578125l-285.39501953125,784.11517333984375h5.321899414060681Zm-835.200195312498181,0L1165.903198242189319,0h-5.321655273439319l-489.17584228515625,1344h5.32098388671875Zm820.8006591796875,0l294.47265625-809.05743408203125v-14.621337890625l-299.79443359375,823.67877197265625h5.32177734375Zm28.7998046875,0l265.6728515625-729.9305419921875v-14.62139892578125l-270.99462890625,744.55194091796875h5.32177734375Zm-57.599609375,0l323.2724609375-888.184326171875v-14.62127685546875l-328.59423828125,902.80560302734375h5.32177734375Zm14.3994140625,0l308.873046875-848.62225341796875v-14.621276855467841l-314.19482421875,863.243530273436591h5.32177734375Zm-72,0L1792,297.55926513671875v-14.6212158203125l-386.19482421875,1061.06195068359375h5.32177734375Zm14.400390625,0l366.47265625-1006.8759765625v-14.621215820311591l-371.79443359375,1021.497192382811591h5.32177734375Zm14.399536132810681,0l352.073120117189319-967.31195068359375v-14.6212158203125l-357.39501953125,981.93316650390625h5.321899414060681Zm14.400268554689319,0l337.6728515625-927.74908447265625v-14.62127685546875l-342.99462890625,942.370361328125h5.32177734375Zm-388.7998046875,0L1554.703002929689319,0h-5.321655273439319l-489.17578125,1344h5.32177734375ZM0,1106.4169921875L402.702514648438409,0h-5.320617675782159L0,1091.7978515625v14.619140625Zm0-79.1279296875L373.902709960938409,0h-5.320617675782159L0,1012.670166015630457v14.618896484369543Zm0,39.5634765625L388.302612304688409,0h-5.320617675782159L0,1052.233520507810681v14.619018554689319Zm0,79.1279296875L417.102416992188409,0h-5.320617675782159L0,1131.361328125v14.619140625Zm0-237.38201904296875L330.702514648438409,0h-5.320617675782159L0,893.97955322265625v14.618896484375Zm0-39.56427001953125L316.302612304688409,0h-5.320617675782159L0,854.415283203125v14.618896484375Zm0,316.509643554689319L431.502319335938409,0h-5.320617675782159L0,1170.9248046875v14.619018554689319Zm0-197.818481445314319L359.502319335938409,0h-5.320617675782159L0,973.1063232421875v14.6190185546875Zm0-39.5634765625L345.102416992188409,0h-5.320617675782159L0,933.54296875v14.618896484375Zm0,276.945556640625L445.902709960938409,0h-5.320617675782159L0,1210.48828125v14.619140625Zm43.12652587890625,118.892578125L532.3026123046875,0h-5.32061767578125L37.80560302734375,1344h5.3209228515625Zm14.400390625,0L546.7025146484375,0h-5.32061767578125L52.20599365234375,1344h5.3209228515625Zm-28.80029296875,0L517.9027099609375,0h-5.32061767578125L23.40570068359375,1344h5.3209228515625Zm633.60009765625,0L1151.502807617189319,0h-5.321655273439319l-489.1754150390625,1344h5.32098388671875ZM0,1304.235473632810681L474.702514648438409,0h-5.320617675782159L0,1289.616333007810681v14.619140625Zm0-39.564575195310681L460.302612304688409,0h-5.320617675782159L0,1250.0517578125v14.619140625Zm0-435.20013427734375L301.902709960938409,0h-5.320617675782159L0,814.8519287109375v14.61883544921875Zm14.32672119140625,514.52923583984375L503.502319335938409,0h-5.320617675782159L9.00579833984375,1344h5.3209228515625Zm-14.32672119140625-.201049804689319L489.102416992188409,0h-5.320617675782159L0,1329.1796875v14.619262695310681ZM0,631.65240478515625L229.902709960938409,0h-5.320617675782159L0,617.03369140625v14.61871337890625Zm0-237.3826904296875L143.502319335938409,0h-5.320617675782159L0,379.651123046875v14.61859130859375Zm0-118.69061279296875L100.302612304688409,0h-5.320617675782159L0,260.96063232421875v14.61846923828125Zm0,79.127197265625L129.102416992188409,0h-5.320617675782159L0,340.087768554688409v14.618530273436591Zm0-118.69061279296875L85.9027099609375,0h-5.32061767578125L0,221.39727783203125v14.618408203125Zm0,79.12713623046875L114.702514648438409,0h-5.320617675782159L0,300.52435302734375v14.61846923828125Zm0-118.691650390625L71.5023193359375,0h-5.32061767578125L0,181.832763671875v14.618408203125ZM0,789.90679931640625L287.502319335938409,0h-5.320617675782159L0,775.2879638671875v14.61883544921875ZM0,77.7607421875L28.3026123046875,0h-5.32061767578125L0,63.14239501953125v14.61834716796875Zm0,79.12701416015625L57.1024169921875,0h-5.32061767578125L0,142.26934814453125v14.618408203125Zm0-39.563415527342841L42.7025146484375,0h-5.32061767578125L0,102.705932617188409v14.618408203125ZM0,671.2158203125L244.302612304688409,0h-5.320617675782159L0,656.5970458984375v14.6187744140625Zm86.32672119140625,672.7841796875L575.5023193359375,0h-5.32061767578125L81.00579833984375,1344h5.3209228515625ZM0,710.7799072265625L258.702514648438409,0h-5.320617675782159L0,696.1611328125v14.6187744140625Zm0,39.56341552734375L273.102416992188409,0h-5.320617675782159L0,735.72454833984375v14.6187744140625ZM0,473.3974609375L172.302612304688409,0h-5.320617675782159L0,458.77886962890625v14.61859130859375Zm0-39.56341552734375L157.902709960938409,0h-5.320617675782159L0,419.215454101563409v14.618591308592841Zm0,158.25421142578125L215.502319335938409,0h-5.320617675782159L0,577.46954345703125v14.61871337890625Zm0-79.12689208984375L186.702514648438409,0h-5.320617675782159L0,498.34271240234375v14.61865234375Zm0,39.5634765625L201.102416992188409,0h-5.320617675782159L0,537.9061279296875v14.61871337890625Zm71.92681884765625,791.47515869140625L561.1024169921875,0h-5.32061767578125L66.60589599609375,1344h5.3209228515625Zm388.799865722657159,0L949.9031982421875,0h-5.32159423828125L455.40570068359375,1344h5.320983886719659Zm14.399841308592841,0L964.3026123046875,0h-5.32159423828125L469.805541992188409,1344h5.320983886717841Zm14.400390625,0L978.7030029296875,0h-5.32159423828125L484.205932617188409,1344h5.320983886717841Zm14.399963378907159,0L993.1033935546875,0h-5.32159423828125L498.60589599609375,1344h5.320983886719659Zm-57.600158691407159,0L935.5028076171875,0h-5.32159423828125L441.005737304688409,1344h5.320983886717841Zm72,0L1007.502807617189319,0h-5.321594238279431l-489.175476074222388,1344h5.32098388671875Zm-100.7998046875,0L906.7030029296875,0h-5.32159423828125L412.205932617188409,1344h5.320983886717841Zm-14.400390625,0L892.3026123046875,0h-5.32159423828125L397.805541992188409,1344h5.320983886717841Zm28.800354003907159,0L921.1033935546875,0h-5.32159423828125L426.60589599609375,1344h5.320983886719659Zm100.799804687499091,0L1021.903198242189319,0h-5.321594238279431l-489.175903320316138,1344h5.32098388671875Zm86.39984130859375,0L1108.302612304689319,0h-5.321655273439319l-489.1754150390625,1344h5.32098388671875Zm14.400390625,0L1122.703002929689319,0h-5.321655273439319l-489.1754150390625,1344h5.32098388671875Zm-28.80023193359375,0L1093.903198242189319,0h-5.321655273439319l-489.17584228515625,1344h5.32098388671875Zm43.2001953125,0L1137.103393554689319,0h-5.321655273439319l-489.17584228515625,1344h5.32098388671875Zm-100.80035400390625,0L1036.302612304689319,0h-5.321655273439319l-489.1754150390625,1344h5.32098388671875Zm-158.39990234375,0L877.9027099609375,0h-5.32061767578125L383.40570068359375,1344h5.3209228515625Zm-288,0L589.9027099609375,0h-5.32061767578125L95.40570068359375,1344h5.3209228515625Zm489.60009765625,0L1079.502807617189319,0h-5.321655273439319l-489.1754150390625,1344h5.32098388671875Zm-14.39984130859375,0L1065.103393554689319,0h-5.321655273439319l-489.17584228515625,1344h5.32098388671875Zm-14.39996337890625,0L1050.703002929689319,0h-5.321655273439319l-489.1754150390625,1344h5.32098388671875Zm-374.400390625,0L676.3026123046875,0h-5.32061767578125L181.80560302734375,1344h5.3209228515625Zm-14.39990234375,0L661.9027099609375,0h-5.32061767578125L167.40570068359375,1344h5.3209228515625Zm28.80029296875,0L690.7025146484375,0h-5.32061767578125L196.20599365234375,1344h5.3209228515625Zm14.39990234375,0L705.1024169921875,0h-5.32061767578125L210.60589599609375,1344h5.3209228515625Zm-100.80029296875,0L604.3026123046875,0h-5.32061767578125L109.80560302734375,1344h5.3209228515625Zm14.400390625,0L618.7025146484375,0h-5.32061767578125L124.20599365234375,1344h5.3209228515625Zm100.7998046875,0L719.5023193359375,0h-5.32061767578125L225.00579833984375,1344h5.3209228515625Zm-86.39990234375,0L633.1024169921875,0h-5.32061767578125L138.60589599609375,1344h5.3209228515625Zm14.39990234375,0L647.5023193359375,0h-5.32061767578125L153.00579833984375,1344h5.3209228515625Zm201.60009765625,0L849.1024169921875,0h-5.32061767578125L354.60589599609375,1344h5.3209228515625Zm-28.80029296875,0L820.3026123046875,0h-5.32061767578125L325.80560302734375,1344h5.3209228515625Zm14.400390625,0L834.7025146484375,0h-5.32061767578125L340.20599365234375,1344h5.3209228515625Zm28.7998046875,0L863.5023193359375,0h-5.32061767578125L369.00579833984375,1344h5.3209228515625Zm-57.60009765625,0L805.9027099609375,0h-5.32061767578125L311.40570068359375,1344h5.3209228515625Zm-57.60009765625,0L748.3026123046875,0h-5.32061767578125L253.80560302734375,1344h5.3209228515625Zm43.2001953125,0L791.5023193359375,0h-5.32061767578125L297.00579833984375,1344h5.3209228515625Zm-28.7998046875,0L762.7025146484375,0h-5.32061767578125L268.20599365234375,1344h5.3209228515625Zm-28.80029296875,0L733.9027099609375,0h-5.32061767578125L239.40570068359375,1344h5.3209228515625Zm43.2001953125,0L777.1024169921875,0h-5.32061767578125L282.60589599609375,1344h5.3209228515625Z" fill="#193149" opacity=".6"></path>
      </g>
    </g>
  </g>
  <g id="Logoform">
    <polygon points="1682.396329562920073 242.868070223137693 1777.784507347760155 242.868070223137693 1377.00537109375 1344 1281.617193308920832 1344 1682.396329562920073 242.868070223137693" fill="#051e34" opacity=".35"></polygon>
    <polygon points="1192.756334479789075 242.868070223137693 1374.584093092780677 242.868070223137693 973.804956838770522 1344 791.977120206960535 1344 1192.756334479789075 242.868070223137693" fill="#051e34" opacity=".35"></polygon>
    <polygon points="703.279214272835816 242.868070223137693 971.531543094752124 242.868070223137693 570.752328821914489 1344 302.5 1344 703.279214272835816 242.868070223137693" fill="#051e34" opacity=".35"></polygon>
  </g>
  <g id="Linien_farbig" data-name="Linien farbig">
    <g opacity=".35">
      <g clip-path="url(#clippath-1)">
        <path d="M1089.00537109375,1344L1578.18115234375,0h5.321655273439319l-489.175659179689319,1344h-5.32177734375Zm-124.27777099609375,0L1453.903198242189319,0h-5.321655273439319l-489.17584228515625,1344h5.3218994140625Zm86.39935302734375,0L1540.302612304689319,0h-5.321655273439319l-489.17578125,1344h5.32177734375Zm28.799926757810681,0L1569.103393554689319,0h-5.321655273439319l-489.1767578125,1344h5.321899414060681Zm-43.199340820310681,0L1525.903198242189319,0h-5.321655273439319l-489.17578125,1344h5.32177734375Zm-14.400329589840112,0L1511.502807617189319,0h-5.321655273439319l-489.175842285159888,1344h5.321899414069776Zm-28.799804687503638,0L1482.703002929689319,0h-5.321655273439319l-489.17584228515625,1344h5.3218994140625Zm14.399475097654431,0L1497.103393554689319,0h-5.321655273439319l-489.176818847659888,1344h5.321960449220569Zm-28.799865722654431,0L1468.302612304689319,0h-5.321655273439319l-489.17584228515625,1344h5.3218994140625Zm230.40032958984375,0L1698.703002929689319,0h-5.321655273439319l-489.17578125,1344h5.32177734375Zm-14.400390625,0L1684.302612304689319,0h-5.321655273439319l-489.17578125,1344h5.32177734375Zm28.799926757810681,0L1713.103393554689319,0h-5.321655273439319l-489.1767578125,1344h5.321899414060681Zm-115.199340820310681,0L1597.903198242189319,0h-5.321655273439319l-489.17578125,1344h5.32177734375Zm72,0L1669.903198242189319,0h-5.321655273439319l-489.17578125,1344h5.32177734375Zm-43.2001953125,0L1626.703002929689319,0h-5.321655273439319l-489.17578125,1344h5.32177734375Zm-14.400390625,0L1612.302612304689319,0h-5.321655273439319l-489.17578125,1344h5.32177734375Zm28.799926757810681,0L1641.103393554689319,0h-5.321655273439319l-489.1767578125,1344h5.321899414060681Zm14.400268554689319,0L1655.502807617189319,0h-5.321655273439319l-489.17578125,1344h5.32177734375Zm-403.20062255859375,0L1252.302612304689319,0h-5.321655273439319l-489.1754150390625,1344h5.32098388671875Zm-14.39984130859375,0L1237.903198242189319,0h-5.321655273439319l-489.17584228515625,1344h5.32098388671875Zm201.60052490234375,0L1439.502807617189319,0h-5.321655273439319l-489.17584228515625,1344h5.3218994140625Zm-172.80029296875,0L1266.703002929689319,0h-5.321655273439319l-489.1754150390625,1344h5.32098388671875Zm14.39996337890625,0L1281.103393554689319,0h-5.321655273439319l-489.17584228515625,1344h5.32098388671875Zm-86.39996337890625,0L1194.703002929689319,0h-5.321655273439319l-489.1754150390625,1344h5.32098388671875Zm-14.400390625,0L1180.302612304689319,0h-5.321655273439319l-489.1754150390625,1344h5.32098388671875Zm43.2001953125,0L1223.502807617189319,0h-5.321655273439319l-489.1754150390625,1344h5.32098388671875Zm72,0L1295.502807617189319,0h-5.321655273439319l-489.1754150390625,1344h5.32098388671875Zm-86.39984130859375,0L1209.103393554689319,0h-5.321655273439319l-489.17584228515625,1344h5.32098388671875Zm518.4002685546875,0L1727.502807617189319,0h-5.321655273439319l-489.17578125,1344h5.32177734375Zm-331.20062255859375,0L1396.302612304689319,0h-5.321655273439319l-489.1754150390625,1344h5.32098388671875Zm14.400390625,0L1410.703002929689319,0h-5.321655273439319l-489.1754150390625,1344h5.32098388671875Zm-28.80023193359375,0L1381.903198242189319,0h-5.321655273439319l-489.17584228515625,1344h5.32098388671875Zm43.2001953125,0L1425.103393554689319,0h-5.321655273439319l-489.17681884765625,1344h5.32196044921875Zm-115.2001953125,0L1309.903198242189319,0h-5.321655273439319l-489.17584228515625,1344h5.32098388671875Zm14.39984130859375,0L1324.302612304689319,0h-5.321655273439319l-489.1754150390625,1344h5.32098388671875Zm14.400390625,0L1338.703002929689319,0h-5.321655273439319l-489.1754150390625,1344h5.32098388671875Zm28.7998046875,0L1367.502807617189319,0h-5.321655273439319l-489.1754150390625,1344h5.32098388671875Zm-14.39984130859375,0L1353.103393554689319,0h-5.321655273439319l-489.17584228515625,1344h5.32098388671875Zm532.8006591796875,0L1792,257.99713134765625v-14.62115478515625l-400.59423828125,1100.6240234375h5.32177734375Zm216,0l179.2724609375-492.5472412109375v-14.62158203125l-184.59423828125,507.1688232421875h5.32177734375Zm14.3994140625,0l164.873046875-452.98516845703125v-14.62158203125l-170.19482421875,467.60675048828125h5.32177734375Zm14.400390625,0l150.47265625-413.42041015625v-14.62158203125l-155.79443359375,428.0419921875h5.32177734375Zm-388.7998046875,0L1741.903198242189319,0h-5.321655273439319l-489.17578125,1344h5.32177734375Zm345.599609375,0l193.6728515625-532.112060546875v-14.62152099609375l-198.99462890625,546.73358154296875h5.32177734375Zm-43.2001953125,0l236.873046875-650.8037109375v-14.6214599609375l-242.19482421875,665.4251708984375h5.32177734375Zm14.400390625,0l222.47265625-611.2388916015625v-14.62152099609375l-227.79443359375,625.86041259765625h5.32177734375Zm100.7998046875,0l121.6728515625-334.293518066409888v-14.621643066402612l-126.99462890625,348.9151611328125h5.32177734375Zm-129.599609375,0l251.2724609375-690.36578369140625v-14.6214599609375l-256.59423828125,704.98724365234375h5.32177734375Zm43.199340820310681,0l208.073120117189319-571.67559814453125v-14.62152099609375l-213.39501953125,586.297119140625h5.321899414060681Zm187.200073242189319,0l20.873046875-57.34814453125v-14.621826171869543l-26.19482421875,71.969970703119543h5.32177734375Zm-14.3994140625,0l35.2724609375-96.91015625v-14.621826171869543l-40.59423828125,111.531982421869543h5.32177734375Zm28.7998046875,0l6.47265625-17.783325195310681v-14.621948242189319l-11.79443359375,32.4052734375h5.32177734375ZM13.9027099609375,0h-5.32061767578125L0,23.57904052734375v14.61834716796875L13.9027099609375,0ZM1684.7275390625,1344l107.2724609375-294.728759765619543v-14.62158203125l-112.59423828125,309.350341796869543h5.32177734375Zm14.3994140625,0l92.873046875-255.166625976560681v-14.621704101558862l-98.19482421875,269.788330078119543h5.32177734375Zm14.400390625,0l78.47265625-215.601806640619543v-14.621826171880457l-83.79443359375,230.2236328125h5.32177734375Zm28.7998046875,0l49.6728515625-136.474975585939319v-14.621704101560681l-54.99462890625,151.0966796875h5.32177734375Zm-14.400268554689319,0l64.073120117189319-176.039306640619543v-14.621704101569776l-69.39501953125,190.661010742189319h5.321899414060681Zm-72,0l136.073120117189319-373.85748291015625v-14.62158203125l-141.39501953125,388.47906494140625h5.321899414060681Zm-273.599731445310681,0L1792,218.432373046875v-14.62115478515625l-414.99462890625,1140.18878173828125h5.32177734375Zm-43.2001953125,0L1792,99.74072265625v-14.62109375l-458.19482421875,1258.88037109375h5.32177734375Zm-14.3994140625,0L1792,60.1785888671875v-14.62103271484375l-472.59423828125,1298.44244384765625h5.32177734375Zm43.199340820310681,0L1792,178.869873046875v-14.62109375l-429.39501953125,1179.751220703125h5.321899414060681Zm-14.399536132810681,0L1792,139.30548095703125v-14.62109375l-443.79443359375,1219.31561279296875h5.32177734375Zm-72,0L1770.703002929689319,0h-5.321655273439319l-489.17578125,1344h5.32177734375Zm-14.400390625,0L1756.302612304689319,0h-5.321655273439319l-489.17578125,1344h5.32177734375Zm28.799926757810681,0L1785.103393554689319,0h-5.321655273439319l-489.1767578125,1344h5.321899414060681Zm14.400268554689319,0L1792,20.61383056640625V5.99285888671875l-486.99462890625,1338.00714111328125h5.32177734375Zm201.599731445310681,0l280.073120117189319-769.4937744140625v-14.62139892578125l-285.39501953125,784.11517333984375h5.321899414060681Zm-835.200195312498181,0L1165.903198242189319,0h-5.321655273439319l-489.17584228515625,1344h5.32098388671875Zm820.8006591796875,0l294.47265625-809.05743408203125v-14.621337890625l-299.79443359375,823.67877197265625h5.32177734375Zm28.7998046875,0l265.6728515625-729.9305419921875v-14.62139892578125l-270.99462890625,744.55194091796875h5.32177734375Zm-57.599609375,0l323.2724609375-888.184326171875v-14.62127685546875l-328.59423828125,902.80560302734375h5.32177734375Zm14.3994140625,0l308.873046875-848.62225341796875v-14.621276855467841l-314.19482421875,863.243530273436591h5.32177734375Zm-72,0L1792,297.55926513671875v-14.6212158203125l-386.19482421875,1061.06195068359375h5.32177734375Zm14.400390625,0l366.47265625-1006.8759765625v-14.621215820311591l-371.79443359375,1021.497192382811591h5.32177734375Zm14.399536132810681,0l352.073120117189319-967.31195068359375v-14.6212158203125l-357.39501953125,981.93316650390625h5.321899414060681Zm14.400268554689319,0l337.6728515625-927.74908447265625v-14.62127685546875l-342.99462890625,942.370361328125h5.32177734375Zm-388.7998046875,0L1554.703002929689319,0h-5.321655273439319l-489.17578125,1344h5.32177734375ZM0,1106.4169921875L402.702514648438409,0h-5.320617675782159L0,1091.7978515625v14.619140625Zm0-79.1279296875L373.902709960938409,0h-5.320617675782159L0,1012.670166015630457v14.618896484369543Zm0,39.5634765625L388.302612304688409,0h-5.320617675782159L0,1052.233520507810681v14.619018554689319Zm0,79.1279296875L417.102416992188409,0h-5.320617675782159L0,1131.361328125v14.619140625Zm0-237.38201904296875L330.702514648438409,0h-5.320617675782159L0,893.97955322265625v14.618896484375Zm0-39.56427001953125L316.302612304688409,0h-5.320617675782159L0,854.415283203125v14.618896484375Zm0,316.509643554689319L431.502319335938409,0h-5.320617675782159L0,1170.9248046875v14.619018554689319Zm0-197.818481445314319L359.502319335938409,0h-5.320617675782159L0,973.1063232421875v14.6190185546875Zm0-39.5634765625L345.102416992188409,0h-5.320617675782159L0,933.54296875v14.618896484375Zm0,276.945556640625L445.902709960938409,0h-5.320617675782159L0,1210.48828125v14.619140625Zm43.12652587890625,118.892578125L532.3026123046875,0h-5.32061767578125L37.80560302734375,1344h5.3209228515625Zm14.400390625,0L546.7025146484375,0h-5.32061767578125L52.20599365234375,1344h5.3209228515625Zm-28.80029296875,0L517.9027099609375,0h-5.32061767578125L23.40570068359375,1344h5.3209228515625Zm633.60009765625,0L1151.502807617189319,0h-5.321655273439319l-489.1754150390625,1344h5.32098388671875ZM0,1304.235473632810681L474.702514648438409,0h-5.320617675782159L0,1289.616333007810681v14.619140625Zm0-39.564575195310681L460.302612304688409,0h-5.320617675782159L0,1250.0517578125v14.619140625Zm0-435.20013427734375L301.902709960938409,0h-5.320617675782159L0,814.8519287109375v14.61883544921875Zm14.32672119140625,514.52923583984375L503.502319335938409,0h-5.320617675782159L9.00579833984375,1344h5.3209228515625Zm-14.32672119140625-.201049804689319L489.102416992188409,0h-5.320617675782159L0,1329.1796875v14.619262695310681ZM0,631.65240478515625L229.902709960938409,0h-5.320617675782159L0,617.03369140625v14.61871337890625Zm0-237.3826904296875L143.502319335938409,0h-5.320617675782159L0,379.651123046875v14.61859130859375Zm0-118.69061279296875L100.302612304688409,0h-5.320617675782159L0,260.96063232421875v14.61846923828125Zm0,79.127197265625L129.102416992188409,0h-5.320617675782159L0,340.087768554688409v14.618530273436591Zm0-118.69061279296875L85.9027099609375,0h-5.32061767578125L0,221.39727783203125v14.618408203125Zm0,79.12713623046875L114.702514648438409,0h-5.320617675782159L0,300.52435302734375v14.61846923828125Zm0-118.691650390625L71.5023193359375,0h-5.32061767578125L0,181.832763671875v14.618408203125ZM0,789.90679931640625L287.502319335938409,0h-5.320617675782159L0,775.2879638671875v14.61883544921875ZM0,77.7607421875L28.3026123046875,0h-5.32061767578125L0,63.14239501953125v14.61834716796875Zm0,79.12701416015625L57.1024169921875,0h-5.32061767578125L0,142.26934814453125v14.618408203125Zm0-39.563415527342841L42.7025146484375,0h-5.32061767578125L0,102.705932617188409v14.618408203125ZM0,671.2158203125L244.302612304688409,0h-5.320617675782159L0,656.5970458984375v14.6187744140625Zm86.32672119140625,672.7841796875L575.5023193359375,0h-5.32061767578125L81.00579833984375,1344h5.3209228515625ZM0,710.7799072265625L258.702514648438409,0h-5.320617675782159L0,696.1611328125v14.6187744140625Zm0,39.56341552734375L273.102416992188409,0h-5.320617675782159L0,735.72454833984375v14.6187744140625ZM0,473.3974609375L172.302612304688409,0h-5.320617675782159L0,458.77886962890625v14.61859130859375Zm0-39.56341552734375L157.902709960938409,0h-5.320617675782159L0,419.215454101563409v14.618591308592841Zm0,158.25421142578125L215.502319335938409,0h-5.320617675782159L0,577.46954345703125v14.61871337890625Zm0-79.12689208984375L186.702514648438409,0h-5.320617675782159L0,498.34271240234375v14.61865234375Zm0,39.5634765625L201.102416992188409,0h-5.320617675782159L0,537.9061279296875v14.61871337890625Zm71.92681884765625,791.47515869140625L561.1024169921875,0h-5.32061767578125L66.60589599609375,1344h5.3209228515625Zm388.799865722657159,0L949.9031982421875,0h-5.32159423828125L455.40570068359375,1344h5.320983886719659Zm14.399841308592841,0L964.3026123046875,0h-5.32159423828125L469.805541992188409,1344h5.320983886717841Zm14.400390625,0L978.7030029296875,0h-5.32159423828125L484.205932617188409,1344h5.320983886717841Zm14.399963378907159,0L993.1033935546875,0h-5.32159423828125L498.60589599609375,1344h5.320983886719659Zm-57.600158691407159,0L935.5028076171875,0h-5.32159423828125L441.005737304688409,1344h5.320983886717841Zm72,0L1007.502807617189319,0h-5.321594238279431l-489.175476074222388,1344h5.32098388671875Zm-100.7998046875,0L906.7030029296875,0h-5.32159423828125L412.205932617188409,1344h5.320983886717841Zm-14.400390625,0L892.3026123046875,0h-5.32159423828125L397.805541992188409,1344h5.320983886717841Zm28.800354003907159,0L921.1033935546875,0h-5.32159423828125L426.60589599609375,1344h5.320983886719659Zm100.799804687499091,0L1021.903198242189319,0h-5.321594238279431l-489.175903320316138,1344h5.32098388671875Zm86.39984130859375,0L1108.302612304689319,0h-5.321655273439319l-489.1754150390625,1344h5.32098388671875Zm14.400390625,0L1122.703002929689319,0h-5.321655273439319l-489.1754150390625,1344h5.32098388671875Zm-28.80023193359375,0L1093.903198242189319,0h-5.321655273439319l-489.17584228515625,1344h5.32098388671875Zm43.2001953125,0L1137.103393554689319,0h-5.321655273439319l-489.17584228515625,1344h5.32098388671875Zm-100.80035400390625,0L1036.302612304689319,0h-5.321655273439319l-489.1754150390625,1344h5.32098388671875Zm-158.39990234375,0L877.9027099609375,0h-5.32061767578125L383.40570068359375,1344h5.3209228515625Zm-288,0L589.9027099609375,0h-5.32061767578125L95.40570068359375,1344h5.3209228515625Zm489.60009765625,0L1079.502807617189319,0h-5.321655273439319l-489.1754150390625,1344h5.32098388671875Zm-14.39984130859375,0L1065.103393554689319,0h-5.321655273439319l-489.17584228515625,1344h5.32098388671875Zm-14.39996337890625,0L1050.703002929689319,0h-5.321655273439319l-489.1754150390625,1344h5.32098388671875Zm-374.400390625,0L676.3026123046875,0h-5.32061767578125L181.80560302734375,1344h5.3209228515625Zm-14.39990234375,0L661.9027099609375,0h-5.32061767578125L167.40570068359375,1344h5.3209228515625Zm28.80029296875,0L690.7025146484375,0h-5.32061767578125L196.20599365234375,1344h5.3209228515625Zm14.39990234375,0L705.1024169921875,0h-5.32061767578125L210.60589599609375,1344h5.3209228515625Zm-100.80029296875,0L604.3026123046875,0h-5.32061767578125L109.80560302734375,1344h5.3209228515625Zm14.400390625,0L618.7025146484375,0h-5.32061767578125L124.20599365234375,1344h5.3209228515625Zm100.7998046875,0L719.5023193359375,0h-5.32061767578125L225.00579833984375,1344h5.3209228515625Zm-86.39990234375,0L633.1024169921875,0h-5.32061767578125L138.60589599609375,1344h5.3209228515625Zm14.39990234375,0L647.5023193359375,0h-5.32061767578125L153.00579833984375,1344h5.3209228515625Zm201.60009765625,0L849.1024169921875,0h-5.32061767578125L354.60589599609375,1344h5.3209228515625Zm-28.80029296875,0L820.3026123046875,0h-5.32061767578125L325.80560302734375,1344h5.3209228515625Zm14.400390625,0L834.7025146484375,0h-5.32061767578125L340.20599365234375,1344h5.3209228515625Zm28.7998046875,0L863.5023193359375,0h-5.32061767578125L369.00579833984375,1344h5.3209228515625Zm-57.60009765625,0L805.9027099609375,0h-5.32061767578125L311.40570068359375,1344h5.3209228515625Zm-57.60009765625,0L748.3026123046875,0h-5.32061767578125L253.80560302734375,1344h5.3209228515625Zm43.2001953125,0L791.5023193359375,0h-5.32061767578125L297.00579833984375,1344h5.3209228515625Zm-28.7998046875,0L762.7025146484375,0h-5.32061767578125L268.20599365234375,1344h5.3209228515625Zm-28.80029296875,0L733.9027099609375,0h-5.32061767578125L239.40570068359375,1344h5.3209228515625Zm43.2001953125,0L777.1024169921875,0h-5.32061767578125L282.60589599609375,1344h5.3209228515625Z" fill="url(#Unbenannter_Verlauf_10)"></path>
      </g>
    </g>
  </g>
</svg>
